<?xml version="1.0" encoding="UTF-8" standalone="no"?>
<svg xmlns:dc="http://purl.org/dc/elements/1.1/" xmlns:cc="http://creativecommons.org/ns#" xmlns:rdf="http://www.w3.org/1999/02/22-rdf-syntax-ns#" xmlns:svg="http://www.w3.org/2000/svg" xmlns="http://www.w3.org/2000/svg" xmlns:sodipodi="http://sodipodi.sourceforge.net/DTD/sodipodi-0.dtd" xmlns:inkscape="http://www.inkscape.org/namespaces/inkscape" width="141.11108mm" height="134.38397mm" viewBox="0 0 499.9999 476.16368" id="svg4241" version="1.1" inkscape:version="0.91 r13725" sodipodi:docname="Fédération Wallonie-Bruxelles logo 2011.svg">
  <defs id="defs4243"/>
  <sodipodi:namedview id="base" pagecolor="#ffffff" bordercolor="#666666" borderopacity="1.0" inkscape:pageopacity="0.0" inkscape:pageshadow="2" inkscape:zoom="1.0195652" inkscape:cx="247.14286" inkscape:cy="237.14286" inkscape:document-units="px" inkscape:current-layer="layer1" showgrid="false" fit-margin-top="0" fit-margin-left="0" fit-margin-right="0" fit-margin-bottom="0" inkscape:window-width="1366" inkscape:window-height="705" inkscape:window-x="-8" inkscape:window-y="-8" inkscape:window-maximized="1"/>
  <metadata id="metadata4246">
    <rdf:RDF>
      <cc:Work rdf:about="">
        <dc:format>image/svg+xml</dc:format>
        <dc:type rdf:resource="http://purl.org/dc/dcmitype/StillImage"/>
        <dc:title/>
      </cc:Work>
    </rdf:RDF>
  </metadata>
  <g inkscape:label="Calque 1" inkscape:groupmode="layer" id="layer1" transform="translate(-319.9917,-445.85796)">
    <!-- F -->
    <path d="m 437.57361,445.85796 c -10.32048,0 -17.36584,5.74486 -17.77548,9.63841 -0.43151,4.30516 2.31465,8.5109 6.03122,11.39626 27.26274,21.32102 -51.38561,62.78983 -41.68755,147.25265 6.87634,59.73147 75.63772,141.2095 89.81395,141.2095 0.53691,0 1.00421,-0.12329 1.37805,-0.3639 10.95084,-7.09309 -32.23208,-85.34374 -42.12303,-111.16281 -21.95536,-57.94975 11.19542,-95.02192 24.12882,-116.58554 16.98205,-28.36837 21.12814,-55.2175 7.86265,-68.17278 -10.10968,-9.91282 -19.81371,-13.21179 -27.62863,-13.21179" style="fill:#e51b24;fill-opacity:1;fill-rule:nonzero;stroke:none" id="path84" inkscape:connector-curvature="0"/>
    <!-- W -->
    <path d="m 635.67774,469.47274 c -0.91671,0 -1.8553,0.0159 -2.81576,0.0597 -100.16425,4.50203 -114.83165,127.34547 -115.07425,171.84877 0,3.82196 0.30027,23.30955 -4.16995,23.30955 -0.90279,0 -2.00642,-0.80734 -3.35863,-2.71832 -5.20796,-7.43511 -20.07222,-29.05043 -24.50863,-34.86887 -1.27664,-1.65645 -3.01063,-2.48964 -4.70486,-2.48964 -3.55947,0 -6.9181,3.67679 -5.38295,11.09401 0.77552,3.76627 10.71221,45.73023 24.99582,62.99663 4.1083,5.00712 13.55581,12.07436 23.32148,12.07436 9.5012,0 19.31658,-6.68544 24.83277,-28.46382 9.55687,-33.69366 -1.78769,-167.64105 112.3261,-182.95074 9.02196,-1.22096 12.49592,-11.93118 7.19251,-18.2388 -3.76428,-4.46027 -15.22418,-11.65279 -32.65365,-11.65279" style="fill:#fab20b;fill-opacity:1;fill-rule:nonzero;stroke:none" id="path88" inkscape:connector-curvature="0">

        
    </path>

    <!-- B -->
    <path d="m 696.78686,589.60881 c -3.60918,-1.13546 -3.77025,-3.37653 -1.11159,-7.35558 4.55772,-6.80077 23.1803,-47.83608 0.23266,-69.37584 -1.86325,-1.75587 -4.29323,-3.57339 -6.91412,-4.84008 -4.21966,-2.02035 -9.52506,0.12917 -9.44949,7.22433 0.54088,52.02989 -25.03759,62.0143 -60.83709,62.39411 l -4.25347,0 0,23.91009 31.69717,2.19136 0.57667,0.0576 c 34.25244,2.69246 54.86952,25.32393 54.86952,51.40549 0,31.36111 -26.05174,51.62821 -54.86156,51.62821 -9.56085,0 -19.36431,-1.9766 -27.28661,-6.936 -1.49737,-0.93858 -3.51771,-2.39618 -5.08467,-3.5873 0,4.0566 0.0299,51.02767 0.0299,51.02767 10.93095,5.2 23.32546,8.28819 39.36495,8.28819 46.10606,0 103.76747,-33.97801 103.76747,-93.37939 0,-30.9634 -25.67392,-61.65437 -60.73966,-72.65293" style="fill:#1b4690;fill-opacity:1;fill-rule:nonzero;stroke:none" id="path92" inkscape:connector-curvature="0"/>
  </g>
</svg>